<svg width="404" height="60" viewBox="0 0 404 60" fill="none" xmlns="http://www.w3.org/2000/svg">
<path d="M56.42 7.348V59H46.06V25.404L32.222 59H24.378L10.466 25.404V59H0.106V7.348H11.872L28.3 45.754L44.728 7.348H56.42ZM84.8666 59.666C80.92 59.666 77.368 58.8027 74.2106 57.076C71.0533 55.3 68.562 52.8087 66.7366 49.602C64.9606 46.3953 64.0726 42.6953 64.0726 38.502C64.0726 34.3087 64.9853 30.6087 66.8106 27.402C68.6853 24.1953 71.226 21.7287 74.4326 20.002C77.6393 18.226 81.216 17.338 85.1626 17.338C89.1093 17.338 92.686 18.226 95.8926 20.002C99.0993 21.7287 101.615 24.1953 103.441 27.402C105.315 30.6087 106.253 34.3087 106.253 38.502C106.253 42.6953 105.291 46.3953 103.367 49.602C101.492 52.8087 98.9266 55.3 95.6706 57.076C92.464 58.8027 88.8626 59.666 84.8666 59.666ZM84.8666 50.638C86.7413 50.638 88.4926 50.194 90.1206 49.306C91.798 48.3687 93.13 46.9873 94.1166 45.162C95.1033 43.3367 95.5966 41.1167 95.5966 38.502C95.5966 34.6047 94.5606 31.62 92.4886 29.548C90.466 27.4267 87.9746 26.366 85.0146 26.366C82.0546 26.366 79.5633 27.4267 77.5406 29.548C75.5673 31.62 74.5806 34.6047 74.5806 38.502C74.5806 42.3993 75.5426 45.4087 77.4666 47.53C79.44 49.602 81.9066 50.638 84.8666 50.638ZM132.056 59.666C128.109 59.666 124.557 58.8027 121.4 57.076C118.243 55.3 115.751 52.8087 113.926 49.602C112.15 46.3953 111.262 42.6953 111.262 38.502C111.262 34.3087 112.175 30.6087 114 27.402C115.875 24.1953 118.415 21.7287 121.622 20.002C124.829 18.226 128.405 17.338 132.352 17.338C136.299 17.338 139.875 18.226 143.082 20.002C146.289 21.7287 148.805 24.1953 150.63 27.402C152.505 30.6087 153.442 34.3087 153.442 38.502C153.442 42.6953 152.48 46.3953 150.556 49.602C148.681 52.8087 146.116 55.3 142.86 57.076C139.653 58.8027 136.052 59.666 132.056 59.666ZM132.056 50.638C133.931 50.638 135.682 50.194 137.31 49.306C138.987 48.3687 140.319 46.9873 141.306 45.162C142.293 43.3367 142.786 41.1167 142.786 38.502C142.786 34.6047 141.75 31.62 139.678 29.548C137.655 27.4267 135.164 26.366 132.204 26.366C129.244 26.366 126.753 27.4267 124.73 29.548C122.757 31.62 121.77 34.6047 121.77 38.502C121.77 42.3993 122.732 45.4087 124.656 47.53C126.629 49.602 129.096 50.638 132.056 50.638ZM183.76 17.412C188.644 17.412 192.59 18.966 195.6 22.074C198.609 25.1327 200.114 29.4247 200.114 34.95V59H189.754V36.356C189.754 33.1 188.94 30.6087 187.312 28.882C185.684 27.106 183.464 26.218 180.652 26.218C177.79 26.218 175.521 27.106 173.844 28.882C172.216 30.6087 171.402 33.1 171.402 36.356V59H161.042V18.004H171.402V23.11C172.783 21.334 174.534 19.9527 176.656 18.966C178.826 17.93 181.194 17.412 183.76 17.412ZM207.301 38.502C207.301 34.2593 208.165 30.5593 209.891 27.402C211.618 24.1953 214.011 21.7287 217.069 20.002C220.128 18.226 223.631 17.338 227.577 17.338C232.659 17.338 236.852 18.6207 240.157 21.186C243.512 23.702 245.757 27.254 246.891 31.842H235.717C235.125 30.066 234.114 28.6847 232.683 27.698C231.302 26.662 229.575 26.144 227.503 26.144C224.543 26.144 222.2 27.2293 220.473 29.4C218.747 31.5213 217.883 34.5553 217.883 38.502C217.883 42.3993 218.747 45.4333 220.473 47.604C222.2 49.7253 224.543 50.786 227.503 50.786C231.697 50.786 234.435 48.9113 235.717 45.162H246.891C245.757 49.602 243.512 53.1293 240.157 55.744C236.803 58.3587 232.609 59.666 227.577 59.666C223.631 59.666 220.128 58.8027 217.069 57.076C214.011 55.3 211.618 52.8333 209.891 49.676C208.165 46.4693 207.301 42.7447 207.301 38.502ZM272.685 59.666C268.738 59.666 265.186 58.8027 262.029 57.076C258.872 55.3 256.38 52.8087 254.555 49.602C252.779 46.3953 251.891 42.6953 251.891 38.502C251.891 34.3087 252.804 30.6087 254.629 27.402C256.504 24.1953 259.044 21.7287 262.251 20.002C265.458 18.226 269.034 17.338 272.981 17.338C276.928 17.338 280.504 18.226 283.711 20.002C286.918 21.7287 289.434 24.1953 291.259 27.402C293.134 30.6087 294.071 34.3087 294.071 38.502C294.071 42.6953 293.109 46.3953 291.185 49.602C289.31 52.8087 286.745 55.3 283.489 57.076C280.282 58.8027 276.681 59.666 272.685 59.666ZM272.685 50.638C274.56 50.638 276.311 50.194 277.939 49.306C279.616 48.3687 280.948 46.9873 281.935 45.162C282.922 43.3367 283.415 41.1167 283.415 38.502C283.415 34.6047 282.379 31.62 280.307 29.548C278.284 27.4267 275.793 26.366 272.833 26.366C269.873 26.366 267.382 27.4267 265.359 29.548C263.386 31.62 262.399 34.6047 262.399 38.502C262.399 42.3993 263.361 45.4087 265.285 47.53C267.258 49.602 269.725 50.638 272.685 50.638ZM306.924 13.12C305.099 13.12 303.57 12.5527 302.336 11.418C301.152 10.234 300.56 8.77866 300.56 7.052C300.56 5.32533 301.152 3.89466 302.336 2.76C303.57 1.576 305.099 0.983997 306.924 0.983997C308.75 0.983997 310.254 1.576 311.438 2.76C312.672 3.89466 313.288 5.32533 313.288 7.052C313.288 8.77866 312.672 10.234 311.438 11.418C310.254 12.5527 308.75 13.12 306.924 13.12ZM312.03 18.004V59H301.67V18.004H312.03ZM344.984 17.412C349.868 17.412 353.815 18.966 356.824 22.074C359.833 25.1327 361.338 29.4247 361.338 34.95V59H350.978V36.356C350.978 33.1 350.164 30.6087 348.536 28.882C346.908 27.106 344.688 26.218 341.876 26.218C339.015 26.218 336.745 27.106 335.068 28.882C333.44 30.6087 332.626 33.1 332.626 36.356V59H322.266V18.004H332.626V23.11C334.007 21.334 335.759 19.9527 337.88 18.966C340.051 17.93 342.419 17.412 344.984 17.412ZM386.878 59.666C383.523 59.666 380.514 59.074 377.85 57.89C375.186 56.6567 373.065 55.004 371.486 52.932C369.957 50.86 369.118 48.566 368.97 46.05H379.404C379.601 47.6287 380.366 48.936 381.698 49.972C383.079 51.008 384.781 51.526 386.804 51.526C388.777 51.526 390.307 51.1313 391.392 50.342C392.527 49.5527 393.094 48.5413 393.094 47.308C393.094 45.976 392.403 44.9893 391.022 44.348C389.69 43.6573 387.544 42.9173 384.584 42.128C381.525 41.388 379.009 40.6233 377.036 39.834C375.112 39.0447 373.435 37.836 372.004 36.208C370.623 34.58 369.932 32.3847 369.932 29.622C369.932 27.3527 370.573 25.2807 371.856 23.406C373.188 21.5313 375.063 20.0513 377.48 18.966C379.947 17.8807 382.833 17.338 386.138 17.338C391.022 17.338 394.919 18.5713 397.83 21.038C400.741 23.4553 402.344 26.736 402.64 30.88H392.724C392.576 29.252 391.885 27.9693 390.652 27.032C389.468 26.0453 387.865 25.552 385.842 25.552C383.967 25.552 382.512 25.8973 381.476 26.588C380.489 27.2787 379.996 28.2407 379.996 29.474C379.996 30.8553 380.687 31.916 382.068 32.656C383.449 33.3467 385.595 34.062 388.506 34.802C391.466 35.542 393.908 36.3067 395.832 37.096C397.756 37.8853 399.409 39.1187 400.79 40.796C402.221 42.424 402.961 44.5947 403.01 47.308C403.01 49.676 402.344 51.7973 401.012 53.672C399.729 55.5467 397.855 57.0267 395.388 58.112C392.971 59.148 390.134 59.666 386.878 59.666Z" fill="white"/>
</svg>
